<svg width="324" height="255" viewBox="0 0 324 255" fill="none" xmlns="http://www.w3.org/2000/svg">
<path d="M142.898 28.9424C145.959 22.4294 155.765 24.9965 155.242 32.1738L152.331 72.1012C151.956 77.2354 157.421 80.7402 161.93 78.2579L196.998 58.953C203.301 55.4828 209.725 63.3248 205.084 68.8241L179.264 99.4169C175.944 103.351 178.305 109.399 183.412 110.042L223.125 115.038C230.264 115.936 230.852 126.058 223.866 127.778L184.999 137.351C180.002 138.582 178.357 144.864 182.111 148.386L211.301 175.775C216.548 180.698 211.076 189.233 204.413 186.518L167.345 171.414C162.579 169.472 157.557 173.588 158.524 178.644L166.041 217.964C167.393 225.032 157.95 228.72 154.155 222.606L133.046 188.595C130.331 184.222 123.85 184.599 121.661 189.258L104.634 225.49C101.573 232.003 91.767 229.436 92.2903 222.259L95.2014 182.331C95.5757 177.197 90.1107 173.692 85.6016 176.175L50.5345 195.48C44.2309 198.95 37.8067 191.108 42.448 185.609L68.2678 155.016C71.5879 151.082 69.2267 145.033 64.1201 144.391L24.4069 139.395C17.2682 138.497 16.6799 128.375 23.6664 126.654L62.5327 117.082C67.5304 115.851 69.1749 109.569 65.4214 106.047L36.2312 78.658C30.984 73.7346 36.4563 65.1998 43.1194 67.9148L80.1866 83.0186C84.9529 84.9608 89.975 80.8451 89.0083 75.7891L81.4908 36.469C80.1394 29.4009 89.5821 25.7127 93.3768 31.8265L114.486 65.8377C117.201 70.211 123.682 69.8336 125.872 65.1746L142.898 28.9424Z" fill="url(#paint0_linear_11_13)"/>
<path d="M156.56 93.7416C151.619 91.6044 153.311 84.2127 158.689 84.4374L188.61 85.687C192.457 85.8477 194.951 81.6802 192.99 78.3664L177.742 52.5954C175.001 47.9629 180.716 42.9775 184.935 46.3201L208.408 64.915C211.427 67.3061 215.894 65.4002 216.256 61.5672L219.07 31.7583C219.576 26.3999 227.129 25.725 228.578 30.9088L236.638 59.7463C237.674 63.4544 242.409 64.5382 244.955 61.65L264.756 39.1891C268.315 35.1516 274.824 39.045 272.949 44.0899L262.516 72.1552C261.175 75.764 264.369 79.4233 268.126 78.5832L297.351 72.0496C302.604 70.8752 305.581 77.8497 301.098 80.8288L276.158 97.4018C272.952 99.5328 273.384 104.37 276.919 105.899L304.404 117.788C309.345 119.925 307.653 127.317 302.275 127.092L272.354 125.843C268.506 125.682 266.013 129.85 267.973 133.163L283.221 158.934C285.962 163.567 280.248 168.552 276.029 165.21L252.555 146.615C249.537 144.224 245.07 146.13 244.708 149.963L241.894 179.772C241.388 185.13 233.834 185.805 232.386 180.621L224.326 151.783C223.289 148.075 218.555 146.992 216.008 149.88L196.208 172.341C192.648 176.378 186.14 172.485 188.015 167.44L198.448 139.375C199.789 135.766 196.595 132.106 192.837 132.947L163.613 139.48C158.359 140.655 155.383 133.68 159.866 130.701L184.805 114.128C188.012 111.997 187.58 107.16 184.045 105.631L156.56 93.7416Z" fill="url(#paint1_linear_11_13)"/>
<defs>
<linearGradient id="paint0_linear_11_13" x1="39.7268" y1="-76.2325" x2="205.613" y2="218.497" gradientUnits="userSpaceOnUse">
<stop stop-color="white"/>
<stop offset="1" stop-color="#CDFFC9"/>
</linearGradient>
<linearGradient id="paint1_linear_11_13" x1="80.3171" y1="173.323" x2="296.831" y2="42.45" gradientUnits="userSpaceOnUse">
<stop stop-color="white"/>
<stop offset="1" stop-color="#CDFFC9"/>
</linearGradient>
</defs>
</svg>
